<?xml version="1.0" standalone="no"?>
<!DOCTYPE svg PUBLIC "-//W3C//DTD SVG 20010904//EN"
 "http://www.w3.org/TR/2001/REC-SVG-20010904/DTD/svg10.dtd">
<svg version="1.0" xmlns="http://www.w3.org/2000/svg"
 width="512.000000pt" height="512.000000pt" viewBox="0 0 512.000000 512.000000"
 preserveAspectRatio="xMidYMid meet">
<metadata>
Created by potrace 1.14, written by Peter Selinger 2001-2017
</metadata>
<g transform="translate(0.000000,512.000000) scale(0.100000,-0.100000)"
fill="#000000" stroke="none">
<path d="M2125 5109 c-136 -18 -334 -84 -445 -147 -282 -161 -465 -373 -598
-693 -17 -41 -24 -47 -58 -53 -129 -24 -332 -120 -465 -220 -418 -315 -605
-854 -473 -1363 43 -168 135 -350 242 -481 l44 -54 -28 -117 c-26 -104 -29
-134 -29 -281 0 -183 13 -268 67 -425 132 -389 462 -706 853 -820 186 -54 404
-67 577 -35 l57 11 63 -62 c176 -173 412 -297 655 -346 119 -23 377 -24 488
-1 448 93 814 403 970 822 20 53 19 52 150 91 405 121 743 478 850 899 104
411 10 824 -265 1167 l-21 25 20 80 c139 538 -87 1110 -555 1409 -257 165
-572 234 -863 191 -90 -14 -121 -13 -121 4 0 13 -160 148 -230 194 -135 89
-286 153 -445 187 -106 23 -336 32 -440 18z m430 -364 c50 -14 126 -44 170
-66 81 -40 175 -103 175 -117 0 -4 -235 -143 -522 -310 -288 -166 -530 -308
-539 -315 -9 -7 -26 -28 -38 -47 -21 -35 -21 -38 -21 -772 0 -406 -3 -738 -7
-737 -5 0 -102 55 -218 123 l-210 122 -3 629 c-3 671 -1 713 45 860 107 339
396 591 753 654 30 6 116 8 190 6 109 -2 152 -8 225 -30z m1225 -395 c363
-107 626 -397 691 -761 14 -80 16 -271 2 -305 -7 -20 -34 -6 -418 218 -676
395 -663 388 -712 388 -24 0 -58 -7 -76 -16 -18 -10 -303 -174 -635 -365 -332
-192 -608 -349 -613 -349 -5 0 -9 103 -9 249 l0 248 548 316 c301 173 575 327
610 341 34 13 93 32 130 40 37 9 76 18 87 20 11 3 88 3 170 1 118 -2 166 -8
225 -25z m-2770 -1122 c0 -573 1 -626 18 -658 19 -39 60 -67 272 -189 571
-328 1030 -595 1028 -597 -13 -11 -425 -247 -433 -247 -5 0 -111 58 -235 130
-124 71 -317 183 -430 248 -443 254 -457 263 -560 365 -154 152 -240 314 -276
524 -21 119 -14 290 16 401 58 214 196 410 376 535 72 50 186 109 212 110 9 0
12 -131 12 -622z m2795 32 c537 -310 569 -330 663 -422 177 -174 269 -383 279
-638 8 -188 -17 -309 -95 -470 -92 -188 -248 -341 -445 -436 l-72 -34 -5 632
c-4 453 -8 639 -17 653 -6 11 -21 29 -33 40 -12 11 -302 182 -643 381 -342
199 -622 365 -622 370 0 4 95 63 210 130 l210 122 40 -22 c22 -13 261 -150
530 -306z m-964 -218 l274 -158 0 -324 0 -323 -273 -158 -274 -158 -279 160
-279 161 2 320 3 320 275 159 c151 87 275 159 276 159 0 0 124 -71 275 -158z
m734 -425 l210 -122 0 -675 c0 -667 0 -676 -22 -758 -80 -296 -295 -545 -564
-653 -138 -55 -185 -63 -364 -63 -148 -1 -181 2 -255 22 -114 31 -247 99 -332
168 l-27 21 517 298 c284 164 532 309 551 323 63 47 61 18 61 827 0 404 3 735
8 735 4 -1 102 -56 217 -123z m-455 -906 l0 -248 -540 -312 c-542 -313 -618
-352 -746 -387 -105 -29 -359 -27 -471 4 -390 106 -675 439 -712 832 -7 79 1
235 13 247 3 3 245 -133 538 -303 578 -333 585 -337 659 -299 28 14 525 300
1134 652 60 34 113 63 117 63 5 0 8 -112 8 -249z"/>
</g>
</svg>
